<?xml version="1.0" encoding="UTF-8" standalone="no"?>
<!DOCTYPE svg PUBLIC "-//W3C//DTD SVG 1.1//EN"
 "http://www.w3.org/Graphics/SVG/1.1/DTD/svg11.dtd">
<!-- Generated by graphviz version 2.36.0 (20140111.2315)
 -->
<!-- Title: FeatureInteractions Pages: 1 -->
<svg width="282pt" height="286pt"
 viewBox="0.00 0.00 281.75 286.00" xmlns="http://www.w3.org/2000/svg" xmlns:xlink="http://www.w3.org/1999/xlink">
<g id="graph0" class="graph" transform="scale(1 1) rotate(0) translate(4 282)">
<title>FeatureInteractions</title>
<polygon fill="white" stroke="none" points="-4,4 -4,-282 277.746,-282 277.746,4 -4,4"/>
<text text-anchor="middle" x="136.873" y="-62.8" font-family="Times,serif" font-size="14.00">blocking</text>
<text text-anchor="middle" x="136.873" y="-48.8" font-family="Times,serif" font-size="14.00">¬blocking</text>
<text text-anchor="middle" x="136.873" y="-34.8" font-family="Times,serif" font-size="14.00">¬blocking&amp;VoiceMail</text>
<text text-anchor="middle" x="136.873" y="-20.8" font-family="Times,serif" font-size="14.00">¬blocking&amp;¬VoiceMail</text>
<text text-anchor="middle" x="136.873" y="-6.8" font-family="Times,serif" font-size="14.00">Parallel&amp;overloaded&amp;¬blocking</text>
<!-- Parallel -->
<g id="node1" class="node"><title>Parallel</title>
<ellipse fill="none" stroke="black" cx="52.7462" cy="-260" rx="37.175" ry="18"/>
<text text-anchor="middle" x="52.7462" y="-255.8" font-family="Times,serif" font-size="14.00">Parallel</text>
</g>
<!-- blocking -->
<g id="node3" class="node"><title>blocking</title>
<ellipse fill="none" stroke="black" cx="105.746" cy="-96" rx="41.082" ry="18"/>
<text text-anchor="middle" x="105.746" y="-91.8" font-family="Times,serif" font-size="14.00">blocking</text>
</g>
<!-- Parallel&#45;&gt;blocking -->
<g id="edge1" class="edge"><title>Parallel&#45;&gt;blocking</title>
<path fill="none" stroke="red" d="M35.8904,-243.635C16.413,-223.937 -11.0303,-188.878 4.9728,-160 17.6051,-137.205 42.3039,-121.567 64.0871,-111.573"/>
<polygon fill="none" stroke="red" points="65.7236,-114.679 73.5176,-107.502 62.9493,-108.252 65.7236,-114.679"/>
<text text-anchor="middle" x="27.133" y="-175" font-family="Times,serif" font-size="10.00">suppresses</text>
</g>
<!-- overloaded -->
<g id="node4" class="node"><title>overloaded</title>
<ellipse fill="none" stroke="black" cx="105.746" cy="-178" rx="49.09" ry="18"/>
<text text-anchor="middle" x="105.746" y="-173.8" font-family="Times,serif" font-size="14.00">overloaded</text>
</g>
<!-- Parallel&#45;&gt;overloaded -->
<g id="edge2" class="edge"><title>Parallel&#45;&gt;overloaded</title>
<path fill="none" stroke="green" d="M49.5296,-241.795C48.7421,-232.977 49.1869,-222.365 53.7609,-214 57.0927,-207.907 61.9947,-202.676 67.4768,-198.257"/>
<polygon fill="none" stroke="green" points="69.6704,-200.992 75.8086,-192.357 65.6249,-195.28 69.6704,-200.992"/>
<text text-anchor="middle" x="69.7389" y="-216" font-family="Times,serif" font-size="10.00">enables</text>
</g>
<!-- Forward -->
<g id="node2" class="node"><title>Forward</title>
<ellipse fill="none" stroke="grey" stroke-dasharray="5,2" cx="147.746" cy="-260" rx="40.1052" ry="18"/>
<text text-anchor="middle" x="147.746" y="-255.8" font-family="Times,serif" font-size="14.00" fill="gray">Forward</text>
</g>
<!-- overloaded&#45;&gt;Parallel -->
<g id="edge3" class="edge"><title>overloaded&#45;&gt;Parallel</title>
<path fill="none" stroke="green" d="M98.8236,-195.834C94.9201,-204.55 89.647,-215.183 83.7462,-224 81.1362,-227.9 78.124,-231.823 75.0245,-235.561"/>
<polygon fill="none" stroke="green" points="72.1547,-233.527 68.2217,-243.364 77.4312,-238.126 72.1547,-233.527"/>
<text text-anchor="middle" x="104.739" y="-216" font-family="Times,serif" font-size="10.00">enables</text>
</g>
<!-- overloaded&#45;&gt;blocking -->
<g id="edge5" class="edge"><title>overloaded&#45;&gt;blocking</title>
<path fill="none" stroke="red" d="M105.746,-159.641C105.746,-149.297 105.746,-135.941 105.746,-124.221"/>
<polygon fill="none" stroke="red" points="109.246,-124.05 105.746,-114.05 102.246,-124.05 109.246,-124.05"/>
<text text-anchor="middle" x="127.133" y="-134" font-family="Times,serif" font-size="10.00">suppresses</text>
</g>
<!-- weight -->
<g id="node5" class="node"><title>weight</title>
<ellipse fill="none" stroke="grey" stroke-dasharray="5,2" cx="239.746" cy="-260" rx="34.2643" ry="18"/>
<text text-anchor="middle" x="239.746" y="-255.8" font-family="Times,serif" font-size="14.00" fill="gray">weight</text>
</g>
<!-- VoiceMail -->
<g id="node6" class="node"><title>VoiceMail</title>
<ellipse fill="none" stroke="black" cx="219.746" cy="-178" rx="46.1799" ry="18"/>
<text text-anchor="middle" x="219.746" y="-173.8" font-family="Times,serif" font-size="14.00">VoiceMail</text>
</g>
<!-- VoiceMail&#45;&gt;blocking -->
<g id="edge4" class="edge"><title>VoiceMail&#45;&gt;blocking</title>
<path fill="none" stroke="red" d="M198.304,-161.953C180.437,-149.415 154.81,-131.431 135.05,-117.564"/>
<polygon fill="none" stroke="red" points="136.904,-114.589 126.707,-111.71 132.883,-120.319 136.904,-114.589"/>
<text text-anchor="middle" x="191.133" y="-134" font-family="Times,serif" font-size="10.00">suppresses</text>
</g>
</g>
</svg>
