<?xml version="1.0" encoding="UTF-8" standalone="no"?>
<!DOCTYPE svg PUBLIC "-//W3C//DTD SVG 1.1//EN"
 "http://www.w3.org/Graphics/SVG/1.1/DTD/svg11.dtd">
<!-- Generated by graphviz version 2.36.0 (20140111.2315)
 -->
<!-- Title: FeatureInteractions Pages: 1 -->
<svg width="298pt" height="282pt"
 viewBox="0.00 0.00 298.00 282.00" xmlns="http://www.w3.org/2000/svg" xmlns:xlink="http://www.w3.org/1999/xlink">
<g id="graph0" class="graph" transform="scale(1 1) rotate(0) translate(4 278)">
<title>FeatureInteractions</title>
<polygon fill="white" stroke="none" points="-4,4 -4,-278 294,-278 294,4 -4,4"/>
<!-- Parallel -->
<g id="node1" class="node"><title>Parallel</title>
<ellipse fill="none" stroke="black" cx="37" cy="-174" rx="37.175" ry="18"/>
<text text-anchor="middle" x="37" y="-169.8" font-family="Times,serif" font-size="14.00">Parallel</text>
</g>
<!-- blocking -->
<g id="node3" class="node"><title>blocking</title>
<ellipse fill="none" stroke="black" cx="133" cy="-92" rx="41.082" ry="18"/>
<text text-anchor="middle" x="133" y="-87.8" font-family="Times,serif" font-size="14.00">blocking</text>
</g>
<!-- Parallel&#45;&gt;blocking -->
<g id="edge1" class="edge"><title>Parallel&#45;&gt;blocking</title>
<path fill="none" stroke="black" d="M55.0569,-157.953C72.1115,-143.74 97.5631,-122.531 114.698,-108.252"/>
</g>
<!-- Forward -->
<g id="node2" class="node"><title>Forward</title>
<ellipse fill="none" stroke="black" cx="250" cy="-256" rx="40.1052" ry="18"/>
<text text-anchor="middle" x="250" y="-251.8" font-family="Times,serif" font-size="14.00">Forward</text>
</g>
<!-- overloaded -->
<g id="node4" class="node"><title>overloaded</title>
<ellipse fill="none" stroke="black" cx="133" cy="-18" rx="49.09" ry="18"/>
<text text-anchor="middle" x="133" y="-13.8" font-family="Times,serif" font-size="14.00">overloaded</text>
</g>
<!-- blocking&#45;&gt;overloaded -->
<g id="edge6" class="edge"><title>blocking&#45;&gt;overloaded</title>
<path fill="none" stroke="black" d="M133,-73.937C133,-62.626 133,-47.8282 133,-36.4407"/>
</g>
<!-- overloaded&#45;&gt;Parallel -->
<g id="edge2" class="edge"><title>overloaded&#45;&gt;Parallel</title>
<path fill="none" stroke="green" d="M102.461,-32.4031C85.1765,-41.5957 64.7335,-55.4895 53.0146,-74 39.453,-95.4213 36.1379,-124.505 35.8005,-145.603"/>
<polygon fill="none" stroke="green" points="32.3017,-145.844 35.857,-155.825 39.3016,-145.806 32.3017,-145.844"/>
<text text-anchor="middle" x="68.9927" y="-89" font-family="Times,serif" font-size="10.00">enables</text>
</g>
<!-- weight -->
<g id="node5" class="node"><title>weight</title>
<ellipse fill="none" stroke="black" cx="158" cy="-256" rx="34.2643" ry="18"/>
<text text-anchor="middle" x="158" y="-251.8" font-family="Times,serif" font-size="14.00">weight</text>
</g>
<!-- weight&#45;&gt;Parallel -->
<g id="edge5" class="edge"><title>weight&#45;&gt;Parallel</title>
<path fill="none" stroke="green" d="M137.474,-241.429C118.037,-228.578 88.6348,-209.139 66.6518,-194.604"/>
<polygon fill="none" stroke="green" points="68.3054,-191.502 58.0334,-188.906 64.4447,-197.341 68.3054,-191.502"/>
<text text-anchor="middle" x="119.993" y="-212" font-family="Times,serif" font-size="10.00">enables</text>
</g>
<!-- weight&#45;&gt;overloaded -->
<g id="edge3" class="edge"><title>weight&#45;&gt;overloaded</title>
<path fill="none" stroke="green" d="M170.327,-238.933C178.834,-226.782 189.409,-209.289 194,-192 198.107,-176.536 195.066,-171.964 194,-156 191.55,-119.311 198.515,-107.337 183,-74 177.47,-62.1176 168.458,-51.0067 159.597,-41.9254"/>
<polygon fill="none" stroke="green" points="161.88,-39.2629 152.27,-34.8021 157.001,-44.2822 161.88,-39.2629"/>
<text text-anchor="middle" x="208.993" y="-130" font-family="Times,serif" font-size="10.00">enables</text>
</g>
<!-- VoiceMail -->
<g id="node6" class="node"><title>VoiceMail</title>
<ellipse fill="none" stroke="black" cx="139" cy="-174" rx="46.1799" ry="18"/>
<text text-anchor="middle" x="139" y="-169.8" font-family="Times,serif" font-size="14.00">VoiceMail</text>
</g>
<!-- VoiceMail&#45;&gt;blocking -->
<g id="edge4" class="edge"><title>VoiceMail&#45;&gt;blocking</title>
<path fill="none" stroke="red" d="M137.698,-155.641C136.922,-145.297 135.921,-131.941 135.042,-120.221"/>
<polygon fill="none" stroke="red" points="138.517,-119.76 134.279,-110.05 131.537,-120.284 138.517,-119.76"/>
<text text-anchor="middle" x="158.387" y="-130" font-family="Times,serif" font-size="10.00">suppresses</text>
</g>
</g>
</svg>
